<svg xmlns="http://www.w3.org/2000/svg" viewBox="0 0 33.55 33.52"><defs><style>.cls-1{fill:#374b64;}</style></defs><g id="Layer_2" data-name="Layer 2"><g id="Layer_1-2" data-name="Layer 1"><path class="cls-1" d="M17.55,0A16.79,16.79,0,0,0,14.8,33.46v.06h3.79v-.05A16.78,16.78,0,0,0,17.55,0ZM19.72,31.7V21.83h3c1,0,1,0,1.13-1,.24-1.54.48-3.07.71-4.6a1,1,0,0,0,0-.19H19.69a9.66,9.66,0,0,1,.3-3.27A1.19,1.19,0,0,1,21.23,12c1.09,0,2.18,0,3.29,0V6.88c-.54-.06-1.09-.15-1.64-.19a16.58,16.58,0,0,0-3.92,0h0l0,0-.26,0a5.76,5.76,0,0,0-4.85,5.14c-.17,1.2-.13,2.43-.19,3.65,0,.16,0,.33,0,.53H9.68v5.74H13.6v9.85a14.85,14.85,0,0,1-6.73-3.31,14.75,14.75,0,0,1-5.26-9.94A15.24,15.24,0,1,1,19.72,31.7Z"/></g></g></svg>